<svg xmlns="http://www.w3.org/2000/svg" width="512" height="384"><path fill="#8e8ef8" d="M496.744 215.999H273.413l148.734 118.524c5.685 4.53 15.04 4.898 20.885.51 36.423-27.345 61.477-64.208 68.828-105.646 1.261-7.095-6.127-13.388-15.115-13.388zm-14.899-48.601C474.09 77.803 384.246 6.207 271.813.027c-8.584-.473-15.812 5.295-15.812 12.15v167.822h210.606c8.602 0 15.831-5.76 15.238-12.6zm-271.02 48.601V38.03c0-7.163-7.896-13.05-16.791-12.045C81.875 38.615-3.857 116.698.134 210.277c4.104 96.106 107.943 174.917 228.602 173.709 47.435-.473 91.266-12.653 127.303-33.023 7.435-4.2 7.925-12.923 1.478-18.06z"/></svg>