<svg xmlns="http://www.w3.org/2000/svg" width="128.002" height="128.704"><path d="M4.66 43.347c-2.404 6.741-3.641 13.843-3.66 21 .024 19.272 8.866 37.474 24 49.406v-70.41H4.656zm77.625 10v71.25c9.718-2.937 18.583-8.179 25.84-15.28V53.348H82.281zm-55.406 10v51.906c7.675 5.575 16.509 9.346 25.844 11.031V63.346H26.879zm83.12 10v33.969c8.764-9.398 14.445-21.251 16.281-33.97h-16.281zm-55.438 15v38.25c8.631 1.319 17.443.829 25.875-1.437V88.348H54.561z" fill="#8e8ef8" fill-opacity=".5"/><path d="M127.016 64.352c.126 22.597-11.857 43.531-31.405 54.866s-43.67 11.335-63.219 0S.861 86.949.987 64.352C.861 41.755 12.843 20.821 32.392 9.486s43.67-11.335 63.219 0 31.531 32.27 31.405 54.866z" fill="none" stroke="#8e8ef8" stroke-width="1.969" stroke-linejoin="round"/></svg>